<svg xmlns="http://www.w3.org/2000/svg" width="1920" height="487" viewBox="0 0 1920 487">
  <defs>
    <style>
      .cls-1 {
        fill: #1d4441;
      }

      .cls-1, .cls-2, .cls-3, .cls-4 {
        fill-rule: evenodd;
      }

      .cls-2 {
        fill: #7ecfb0;
      }

      .cls-3 {
        fill: #358b6b;
      }

      .cls-4 {
        fill: #4ca684;
      }
    </style>
  </defs>
  <path id="prompto" class="cls-1" d="M592.572,115.222q-29.492-29.486-72.1-29.492-43,0-72.486,29.3t-29.488,72.3l0.191,160.988h51.376l-0.2-72.7a99.936,99.936,0,0,0,50.607,13.319q42.609,0,72.1-29.492t29.489-72.111Q622.061,144.72,592.572,115.222ZM556.044,222.913a48.436,48.436,0,0,1-35.576,14.651A49.054,49.054,0,0,1,484.7,222.913a50.073,50.073,0,0,1,0-71.16A49.078,49.078,0,0,1,520.468,137.1a50.021,50.021,0,0,1,50.226,50.231A48.45,48.45,0,0,1,556.044,222.913ZM742.674,85.73q-42.618,0-72.295,29.438T640.7,187.137v96.091h51.368V187.137a47.992,47.992,0,0,1,14.839-35.509A49.105,49.105,0,0,1,742.674,137V85.73Zm184.348,29.438Q897.531,85.736,854.917,85.73t-72.294,29.438q-29.681,29.431-29.679,71.975,0,42.925,29.488,72.361t72.485,29.432q42.61,0,72.105-29.622t29.489-72.171Q956.511,144.6,927.022,115.168ZM890.494,222.782a48.21,48.21,0,0,1-35.577,14.782,50.567,50.567,0,0,1-50.606-50.421A47.845,47.845,0,0,1,819.15,151.7a49.17,49.17,0,0,1,35.767-14.6q20.547,0,35.387,14.788t14.839,35.253A48.821,48.821,0,0,1,890.494,222.782Zm433.576-35.645q0-42.534-29.68-71.969T1222.1,85.73q-42.24,0-72.3,30.063-30.06-30.057-72.29-30.063-42.615,0-72.3,29.438t-29.676,71.969v96.091H1026.9V187.2a47.886,47.886,0,0,1,14.89-35.485A49.433,49.433,0,0,1,1077.7,137.1q20.61,0,35.52,14.806,14.88,14.805,14.89,35.294v96.026h51.37V161.017q14.835-23.911,43-23.915a49.96,49.96,0,0,1,50.22,50.1v96.026h51.37V187.137Zm192.72-71.915q-29.49-29.486-72.11-29.492-42.99,0-72.48,29.3t-29.49,72.3l0.34,160.988h51.37l-0.34-72.7a99.922,99.922,0,0,0,50.6,13.319q42.615,0,72.11-29.492,29.475-29.485,29.49-72.111T1516.79,115.222Zm-36.53,107.691a48.443,48.443,0,0,1-35.58,14.651,49.04,49.04,0,0,1-35.76-14.651,50.073,50.073,0,0,1,0-71.16,49.064,49.064,0,0,1,35.76-14.651,50.021,50.021,0,0,1,50.23,50.231A48.458,48.458,0,0,1,1480.26,222.913Zm186.63,8.943a49.079,49.079,0,0,1-35.77-14.651,48.133,48.133,0,0,1-14.84-35.58V129.492h50.61V85.73h-50.61l-0.26-58.206h-51.41l0.31,154.232q0,42.569,29.68,72.022t72.29,29.45V231.856Zm177.12-116.688q-29.49-29.432-72.1-29.438-42.63,0-72.3,29.438t-29.68,71.975q0,42.925,29.49,72.361t72.49,29.432q42.6,0,72.1-29.622t29.49-72.171Q1873.5,144.6,1844.01,115.168Zm-36.53,107.614a48.21,48.21,0,0,1-35.57,14.782,50.568,50.568,0,0,1-50.61-50.421,47.857,47.857,0,0,1,14.84-35.443,49.16,49.16,0,0,1,35.77-14.6q20.535,0,35.38,14.788t14.84,35.253A48.79,48.79,0,0,1,1807.48,222.782Z"/>
  <path id="P4" class="cls-2" d="M0.143,285.851c270.255,97.814,365.9-45.268,360.331-96.337C306.282,335.27,37.717,284.863.143,285.851Z"/>
  <path id="P3" class="cls-3" d="M127.618,323.9c20.555,3.286,36.38,3.486,36.529,3.365,12.213,41.61,53.606,134.257,53.606,134.257S151.262,385.835,127.618,323.9Z"/>
  <path id="P2" class="cls-3" d="M228.579,83.146c-193-6-124.63,183.865-113.884,201.435,4.326,0.813,35.675,1.059,39.376.3C154.067,284.872,88.833,89.711,228.579,83.146Z"/>
  <path id="P1" class="cls-4" d="M211.7,263.27C409.342,229.843,369.929,90.71,315.08,48.291,260.151,5.811,105.387-12.714,90.244,155.761,119.628,32.875,253.278,58.436,290.819,97.2,328.286,135.88,324.574,228.269,211.7,263.27Z"/>
</svg>
