<svg xmlns="http://www.w3.org/2000/svg" width="1920" height="487" viewBox="0 0 1920 487">
  <defs>
    <style>
      .cls-1 {
        fill: #1d4441;
      }

      .cls-1, .cls-2, .cls-3, .cls-4 {
        fill-rule: evenodd;
      }

      .cls-2 {
        fill: #7ecfb0;
      }

      .cls-3 {
        fill: #358b6b;
      }

      .cls-4 {
        fill: #4ca684;
      }
    </style>
  </defs>
  <path id="the_full_stack_language_hosted_in_the_cloud" data-name="the full stack language hosted in the cloud" class="cls-1" d="M436.945,438.256a23.6,23.6,0,0,0,7.065-1.41l-1.256-4.856a13.883,13.883,0,0,1-4.318,1.018c-4.4,0-5.888-2.663-5.888-7.363V404.5h10.284v-5.248H432.548V388.6h-5.417l-0.785,10.653-5.966.392V404.5h5.652v21.071C426.032,433.086,428.78,438.256,436.945,438.256Zm16.529-.94h6.438V409.744c3.846-3.838,6.516-5.875,10.441-5.875,5.024,0,7.222,3.055,7.222,10.183v23.264h6.438V413.191c0-9.713-3.612-14.883-11.619-14.883-5.26,0-9.107,2.82-12.718,6.266l0.236-7.833v-15.2h-6.438v55.771Zm60.2,0.94a22.756,22.756,0,0,0,12.561-3.916l-2.277-4.23a17.271,17.271,0,0,1-9.5,2.976c-7.3,0-12.247-5.169-12.718-13.237h25.75a24.864,24.864,0,0,0,.235-3.682c0-10.888-5.5-17.859-15.229-17.859-8.715,0-17.115,7.6-17.115,20.052S503.471,438.256,513.677,438.256Zm-12.011-23.029c0.785-7.519,5.652-11.828,10.99-11.828,5.967,0,9.421,4.152,9.421,11.828H501.666Zm56.3,22.089H564.4V404.5h8.086v-5.248H564.4v-6.031c0-4.857,1.727-7.363,5.339-7.363a10.73,10.73,0,0,1,4.317.94l1.413-4.935a17.315,17.315,0,0,0-6.358-1.253c-7.615,0-11.148,4.856-11.148,12.611v6.031l-5.182.392V404.5h5.182v32.82Zm34.972,0.94c5.26,0,9.028-2.741,12.561-6.893h0.235l0.55,5.953h5.338V399.248h-6.437v27.024c-3.611,4.465-6.359,6.423-10.284,6.423-5.025,0-7.144-3.055-7.144-10.183V399.248h-6.516v24.126C581.239,433.086,584.85,438.256,592.936,438.256Zm40.42,0a8.69,8.69,0,0,0,3.689-.626l-0.863-4.857a5.412,5.412,0,0,1-1.413.157c-0.942,0-1.806-.784-1.806-2.82V381.545h-6.437V429.64C626.526,435.2,628.488,438.256,633.356,438.256Zm22.014,0a8.7,8.7,0,0,0,3.69-.626l-0.864-4.857a5.412,5.412,0,0,1-1.413.157c-0.942,0-1.806-.784-1.806-2.82V381.545H648.54V429.64C648.54,435.2,650.5,438.256,655.37,438.256Zm42.844,0c9.029,0,13.974-5.17,13.974-11.358,0-7.206-6.123-9.477-11.618-11.514-4.318-1.645-8.479-2.977-8.479-6.58,0-2.9,2.2-5.483,6.987-5.483,3.376,0,6.123,1.41,8.714,3.368l3.062-4.073A19.07,19.07,0,0,0,699,398.308c-8.243,0-13.111,4.7-13.111,10.81,0,6.423,5.967,9.007,11.384,10.966,4.16,1.566,8.714,3.29,8.714,7.206,0,3.29-2.513,5.953-7.537,5.953-4.553,0-7.929-1.88-11.226-4.543l-3.219,4.308A22.994,22.994,0,0,0,698.214,438.256Zm35.379,0a23.606,23.606,0,0,0,7.066-1.41L739.4,431.99a13.883,13.883,0,0,1-4.318,1.018c-4.4,0-5.888-2.663-5.888-7.363V404.5h10.284v-5.248H729.2V388.6H723.78L723,399.248l-5.966.392V404.5h5.652v21.071C722.681,433.086,725.429,438.256,733.593,438.256Zm23.672,0c4.789,0,9.028-2.506,12.639-5.483h0.236l0.549,4.543h5.338V413.974c0-9.478-3.925-15.666-13.267-15.666-6.123,0-11.462,2.663-14.994,4.935l2.512,4.465c2.983-2.037,6.987-4.074,11.383-4.074,6.28,0,7.851,4.7,7.851,9.557-16.251,1.8-23.395,5.953-23.395,14.256C746.117,434.261,750.906,438.256,757.265,438.256Zm1.884-5.17c-3.768,0-6.752-1.8-6.752-6.109,0-4.857,4.4-7.99,17.115-9.556V428C765.822,431.285,762.839,433.086,759.149,433.086Zm45.989,5.17a18.633,18.633,0,0,0,12.325-4.856l-2.826-4.308a13.574,13.574,0,0,1-8.95,3.838c-6.987,0-11.775-5.875-11.775-14.57,0-8.773,5.024-14.726,11.932-14.726,3.062,0,5.417,1.41,7.615,3.369l3.3-4.23a15.858,15.858,0,0,0-11.148-4.465c-9.813,0-18.37,7.285-18.37,20.052C787.239,430.972,795.011,438.256,805.138,438.256Zm22.745-.94h6.359V427.29l7.144-8.3,11.148,18.329H859.6l-14.523-22.794,12.8-15.274h-7.144L834.478,419.3h-0.236V381.545h-6.359v55.771Zm65.4,0.94a8.692,8.692,0,0,0,3.69-.626l-0.863-4.857a5.412,5.412,0,0,1-1.413.157c-0.942,0-1.806-.784-1.806-2.82V381.545h-6.437V429.64C886.459,435.2,888.421,438.256,893.288,438.256Zm23.977,0c4.789,0,9.028-2.506,12.64-5.483h0.235l0.55,4.543h5.338V413.974c0-9.478-3.925-15.666-13.267-15.666-6.124,0-11.462,2.663-15,4.935l2.512,4.465c2.984-2.037,6.987-4.074,11.384-4.074,6.28,0,7.85,4.7,7.85,9.557-16.25,1.8-23.394,5.953-23.394,14.256C906.118,434.261,910.906,438.256,917.265,438.256Zm1.884-5.17c-3.768,0-6.751-1.8-6.751-6.109,0-4.857,4.4-7.99,17.114-9.556V428C925.822,431.285,922.839,433.086,919.149,433.086Zm30.917,4.23H956.5V409.744c3.847-3.838,6.516-5.875,10.441-5.875,5.024,0,7.222,3.055,7.222,10.183v23.264H980.6V413.191c0-9.713-3.611-14.883-11.619-14.883-5.26,0-9.185,2.82-12.8,6.423h-0.236l-0.549-5.483h-5.338v38.068Zm57.844,17.546c11.86,0,19.32-6.11,19.32-13.159,0-6.345-4.48-9.087-13.35-9.087h-7.38c-5.18,0-6.75-1.723-6.75-4.151,0-2.115,1.1-3.368,2.43-4.543a13.382,13.382,0,0,0,5.73,1.331c7.78,0,13.98-5.091,13.98-13.237a11.048,11.048,0,0,0-3.14-7.833h7.85v-4.935h-13.27a15.275,15.275,0,0,0-5.42-.94c-7.77,0-14.362,5.248-14.362,13.551a13.464,13.464,0,0,0,4.945,10.261v0.314c-1.962,1.331-4.16,3.838-4.16,7.049a7.022,7.022,0,0,0,3.375,6.188v0.314c-3.454,2.35-5.574,5.4-5.574,8.616C992.134,451.181,998.572,454.862,1007.91,454.862Zm0-33.917c-4.39,0-8.082-3.524-8.082-9.086s3.612-8.851,8.082-8.851,8.09,3.29,8.09,8.851S1012.31,420.945,1007.91,420.945Zm0.95,29.452c-6.91,0-11.073-2.585-11.073-6.658,0-2.193,1.177-4.465,3.923-6.423a18.663,18.663,0,0,0,4.95.627h6.59c4.95,0,7.7,1.175,7.7,4.7C1020.95,446.637,1016.16,450.4,1008.86,450.4Zm38.92-12.141c5.26,0,9.03-2.741,12.56-6.893h0.24l0.55,5.953h5.33V399.248h-6.43v27.024c-3.61,4.465-6.36,6.423-10.29,6.423-5.02,0-7.14-3.055-7.14-10.183V399.248h-6.52v24.126C1036.08,433.086,1039.69,438.256,1047.78,438.256Zm42.38,0c4.79,0,9.03-2.506,12.64-5.483h0.24l0.55,4.543h5.33V413.974c0-9.478-3.92-15.666-13.26-15.666-6.13,0-11.46,2.663-15,4.935l2.51,4.465c2.99-2.037,6.99-4.074,11.39-4.074,6.28,0,7.85,4.7,7.85,9.557-16.25,1.8-23.4,5.953-23.4,14.256C1079.01,434.261,1083.8,438.256,1090.16,438.256Zm1.89-5.17c-3.77,0-6.76-1.8-6.76-6.109,0-4.857,4.4-7.99,17.12-9.556V428C1098.72,431.285,1095.74,433.086,1092.05,433.086Zm43.79,21.776c11.85,0,19.31-6.11,19.31-13.159,0-6.345-4.48-9.087-13.35-9.087h-7.38c-5.18,0-6.75-1.723-6.75-4.151,0-2.115,1.1-3.368,2.44-4.543a13.315,13.315,0,0,0,5.73,1.331c7.77,0,13.97-5.091,13.97-13.237a11.006,11.006,0,0,0-3.14-7.833h7.85v-4.935h-13.27a15.216,15.216,0,0,0-5.41-.94c-7.78,0-14.37,5.248-14.37,13.551a13.441,13.441,0,0,0,4.95,10.261v0.314c-1.97,1.331-4.16,3.838-4.16,7.049a7.027,7.027,0,0,0,3.37,6.188v0.314c-3.45,2.35-5.57,5.4-5.57,8.616C1120.06,451.181,1126.49,454.862,1135.84,454.862Zm0-33.917c-4.4,0-8.09-3.524-8.09-9.086s3.61-8.851,8.09-8.851,8.08,3.29,8.08,8.851S1140.23,420.945,1135.84,420.945Zm0.94,29.452c-6.91,0-11.07-2.585-11.07-6.658,0-2.193,1.18-4.465,3.92-6.423a18.663,18.663,0,0,0,4.95.627h6.6c4.94,0,7.69,1.175,7.69,4.7C1148.87,446.637,1144.08,450.4,1136.78,450.4Zm42.14-12.141a22.763,22.763,0,0,0,12.56-3.916l-2.28-4.23a17.229,17.229,0,0,1-9.49,2.976c-7.31,0-12.25-5.169-12.72-13.237h25.75a25.927,25.927,0,0,0,.23-3.682c0-10.888-5.49-17.859-15.23-17.859-8.71,0-17.11,7.6-17.11,20.052S1168.71,438.256,1178.92,438.256Zm-12.01-23.029c0.78-7.519,5.65-11.828,10.99-11.828,5.97,0,9.42,4.152,9.42,11.828h-20.41Zm55.2,22.089h6.44V409.744c3.84-3.838,6.51-5.875,10.44-5.875,5.02,0,7.22,3.055,7.22,10.183v23.264h6.44V413.191c0-9.713-3.62-14.883-11.62-14.883-5.26,0-9.11,2.82-12.72,6.266l0.24-7.833v-15.2h-6.44v55.771Zm59.57,0.94c9.34,0,17.67-7.284,17.67-19.9,0-12.767-8.33-20.052-17.67-20.052s-17.66,7.285-17.66,20.052C1264.02,430.972,1272.34,438.256,1281.68,438.256Zm0-5.326c-6.51,0-10.99-5.875-10.99-14.57,0-8.773,4.48-14.726,10.99-14.726,6.6,0,10.99,5.953,10.99,14.726C1292.67,427.055,1288.28,432.93,1281.68,432.93Zm39.72,5.326c9.02,0,13.97-5.17,13.97-11.358,0-7.206-6.12-9.477-11.62-11.514-4.32-1.645-8.48-2.977-8.48-6.58,0-2.9,2.2-5.483,6.99-5.483,3.37,0,6.12,1.41,8.71,3.368l3.06-4.073a19.043,19.043,0,0,0-11.85-4.308c-8.24,0-13.11,4.7-13.11,10.81,0,6.423,5.97,9.007,11.38,10.966,4.16,1.566,8.72,3.29,8.72,7.206,0,3.29-2.51,5.953-7.54,5.953-4.55,0-7.93-1.88-11.23-4.543l-3.21,4.308A22.985,22.985,0,0,0,1321.4,438.256Zm35.37,0a23.6,23.6,0,0,0,7.07-1.41l-1.26-4.856a13.829,13.829,0,0,1-4.31,1.018c-4.4,0-5.89-2.663-5.89-7.363V404.5h10.28v-5.248h-10.28V388.6h-5.42l-0.78,10.653-5.97.392V404.5h5.65v21.071C1345.86,433.086,1348.61,438.256,1356.77,438.256Zm30.9,0a22.763,22.763,0,0,0,12.56-3.916l-2.28-4.23a17.236,17.236,0,0,1-9.5,2.976c-7.3,0-12.24-5.169-12.71-13.237h25.75a25.927,25.927,0,0,0,.23-3.682c0-10.888-5.49-17.859-15.23-17.859-8.71,0-17.11,7.6-17.11,20.052S1377.46,438.256,1387.67,438.256Zm-12.01-23.029c0.78-7.519,5.65-11.828,10.99-11.828,5.96,0,9.42,4.152,9.42,11.828h-20.41Zm50.54,23.029c4.47,0,8.56-2.506,11.54-5.4h0.23l0.55,4.465h5.34V381.545h-6.51v14.648l0.31,6.5c-3.38-2.742-6.28-4.387-10.68-4.387-8.71,0-16.56,7.676-16.56,20.052C1410.42,431.05,1416.62,438.256,1426.2,438.256Zm1.41-5.4c-6.67,0-10.52-5.483-10.52-14.569,0-8.695,4.87-14.569,10.99-14.569,3.14,0,6.05,1.1,9.27,4V427.6C1434.21,431.128,1431.14,432.851,1427.61,432.851Zm48.85,4.465h6.44V399.248h-6.44v38.068Zm3.3-45.9a4.21,4.21,0,0,0,4.47-4.151,4.488,4.488,0,0,0-8.95,0A4.212,4.212,0,0,0,1479.76,391.415Zm18.01,45.9h6.43V409.744c3.85-3.838,6.52-5.875,10.44-5.875,5.03,0,7.23,3.055,7.23,10.183v23.264h6.43V413.191c0-9.713-3.61-14.883-11.61-14.883-5.26,0-9.19,2.82-12.8,6.423h-0.24l-0.55-5.483h-5.33v38.068Zm74.67,0.94a23.6,23.6,0,0,0,7.07-1.41l-1.26-4.856a13.889,13.889,0,0,1-4.32,1.018c-4.39,0-5.89-2.663-5.89-7.363V404.5h10.29v-5.248h-10.29V388.6h-5.41l-0.79,10.653-5.96.392V404.5h5.65v21.071C1561.53,433.086,1564.28,438.256,1572.44,438.256Zm16.53-.94h6.44V409.744c3.84-3.838,6.51-5.875,10.44-5.875,5.02,0,7.22,3.055,7.22,10.183v23.264h6.44V413.191c0-9.713-3.61-14.883-11.62-14.883-5.26,0-9.11,2.82-12.72,6.266l0.24-7.833v-15.2h-6.44v55.771Zm60.2,0.94a22.736,22.736,0,0,0,12.56-3.916l-2.27-4.23a17.288,17.288,0,0,1-9.5,2.976c-7.3,0-12.25-5.169-12.72-13.237h25.75a24.4,24.4,0,0,0,.24-3.682c0-10.888-5.5-17.859-15.23-17.859-8.72,0-17.12,7.6-17.12,20.052S1638.97,438.256,1649.17,438.256Zm-12.01-23.029c0.79-7.519,5.65-11.828,10.99-11.828,5.97,0,9.42,4.152,9.42,11.828h-20.41Zm70.27,23.029a18.624,18.624,0,0,0,12.33-4.856l-2.83-4.308a13.549,13.549,0,0,1-8.95,3.838c-6.98,0-11.77-5.875-11.77-14.57,0-8.773,5.02-14.726,11.93-14.726,3.06,0,5.42,1.41,7.62,3.369l3.29-4.23a15.845,15.845,0,0,0-11.14-4.465c-9.82,0-18.37,7.285-18.37,20.052C1689.54,430.972,1697.31,438.256,1707.43,438.256Zm29.58,0a8.676,8.676,0,0,0,3.69-.626l-0.86-4.857a5.439,5.439,0,0,1-1.42.157c-0.94,0-1.8-.784-1.8-2.82V381.545h-6.44V429.64C1730.18,435.2,1732.14,438.256,1737.01,438.256Zm30.02,0c9.34,0,17.66-7.284,17.66-19.9,0-12.767-8.32-20.052-17.66-20.052s-17.66,7.285-17.66,20.052C1749.37,430.972,1757.69,438.256,1767.03,438.256Zm0-5.326c-6.51,0-10.99-5.875-10.99-14.57,0-8.773,4.48-14.726,10.99-14.726,6.6,0,10.99,5.953,10.99,14.726C1778.02,427.055,1773.63,432.93,1767.03,432.93Zm40.89,5.326c5.26,0,9.03-2.741,12.56-6.893h0.24l0.55,5.953h5.34V399.248h-6.44v27.024c-3.61,4.465-6.36,6.423-10.29,6.423-5.02,0-7.14-3.055-7.14-10.183V399.248h-6.52v24.126C1796.22,433.086,1799.84,438.256,1807.92,438.256Zm46.62,0c4.48,0,8.56-2.506,11.54-5.4h0.24l0.55,4.465h5.34V381.545h-6.52v14.648l0.31,6.5c-3.37-2.742-6.28-4.387-10.67-4.387-8.72,0-16.57,7.676-16.57,20.052C1838.76,431.05,1844.97,438.256,1854.54,438.256Zm1.42-5.4c-6.68,0-10.52-5.483-10.52-14.569,0-8.695,4.86-14.569,10.99-14.569,3.14,0,6.04,1.1,9.26,4V427.6C1862.55,431.128,1859.49,432.851,1855.96,432.851Z"/>
  <path id="prompto" class="cls-1" d="M592.572,115.222q-29.492-29.486-72.1-29.492-43,0-72.486,29.3t-29.488,72.3l0.191,160.988h51.376l-0.2-72.7a99.936,99.936,0,0,0,50.607,13.319q42.609,0,72.1-29.492t29.489-72.111Q622.061,144.72,592.572,115.222ZM556.044,222.913a48.436,48.436,0,0,1-35.576,14.651A49.054,49.054,0,0,1,484.7,222.913a50.073,50.073,0,0,1,0-71.16A49.078,49.078,0,0,1,520.468,137.1a50.021,50.021,0,0,1,50.226,50.231A48.45,48.45,0,0,1,556.044,222.913ZM742.674,85.73q-42.618,0-72.295,29.438T640.7,187.137v96.091h51.368V187.137a47.992,47.992,0,0,1,14.839-35.509A49.105,49.105,0,0,1,742.674,137V85.73Zm184.348,29.438Q897.531,85.736,854.917,85.73t-72.294,29.438q-29.681,29.431-29.679,71.975,0,42.925,29.488,72.361t72.485,29.432q42.61,0,72.105-29.622t29.489-72.171Q956.511,144.6,927.022,115.168ZM890.494,222.782a48.21,48.21,0,0,1-35.577,14.782,50.567,50.567,0,0,1-50.606-50.421A47.845,47.845,0,0,1,819.15,151.7a49.17,49.17,0,0,1,35.767-14.6q20.547,0,35.387,14.788t14.839,35.253A48.821,48.821,0,0,1,890.494,222.782Zm433.576-35.645q0-42.534-29.68-71.969T1222.1,85.73q-42.24,0-72.3,30.063-30.06-30.057-72.29-30.063-42.615,0-72.3,29.438t-29.676,71.969v96.091H1026.9V187.2a47.886,47.886,0,0,1,14.89-35.485A49.433,49.433,0,0,1,1077.7,137.1q20.61,0,35.52,14.806,14.88,14.805,14.89,35.294v96.026h51.37V161.017q14.835-23.911,43-23.915a49.96,49.96,0,0,1,50.22,50.1v96.026h51.37V187.137Zm192.72-71.915q-29.49-29.486-72.11-29.492-42.99,0-72.48,29.3t-29.49,72.3l0.34,160.988h51.37l-0.34-72.7a99.922,99.922,0,0,0,50.6,13.319q42.615,0,72.11-29.492,29.475-29.485,29.49-72.111T1516.79,115.222Zm-36.53,107.691a48.443,48.443,0,0,1-35.58,14.651,49.04,49.04,0,0,1-35.76-14.651,50.073,50.073,0,0,1,0-71.16,49.064,49.064,0,0,1,35.76-14.651,50.021,50.021,0,0,1,50.23,50.231A48.458,48.458,0,0,1,1480.26,222.913Zm186.63,8.943a49.079,49.079,0,0,1-35.77-14.651,48.133,48.133,0,0,1-14.84-35.58V129.492h50.61V85.73h-50.61l-0.26-58.206h-51.41l0.31,154.232q0,42.569,29.68,72.022t72.29,29.45V231.856Zm177.12-116.688q-29.49-29.432-72.1-29.438-42.63,0-72.3,29.438t-29.68,71.975q0,42.925,29.49,72.361t72.49,29.432q42.6,0,72.1-29.622t29.49-72.171Q1873.5,144.6,1844.01,115.168Zm-36.53,107.614a48.21,48.21,0,0,1-35.57,14.782,50.568,50.568,0,0,1-50.61-50.421,47.857,47.857,0,0,1,14.84-35.443,49.16,49.16,0,0,1,35.77-14.6q20.535,0,35.38,14.788t14.84,35.253A48.79,48.79,0,0,1,1807.48,222.782Z"/>
  <path id="P4" class="cls-2" d="M0.143,285.851c270.255,97.814,365.9-45.268,360.331-96.337C306.282,335.27,37.717,284.863.143,285.851Z"/>
  <path id="P3" class="cls-3" d="M127.618,323.9c20.555,3.286,36.38,3.486,36.529,3.365,12.213,41.61,53.606,134.257,53.606,134.257S151.262,385.835,127.618,323.9Z"/>
  <path id="P2" class="cls-3" d="M228.579,83.146c-193-6-124.63,183.865-113.884,201.435,4.326,0.813,35.675,1.059,39.376.3C154.067,284.872,88.833,89.711,228.579,83.146Z"/>
  <path id="P1" class="cls-4" d="M211.7,263.27C409.342,229.843,369.929,90.71,315.08,48.291,260.151,5.811,105.387-12.714,90.244,155.761,119.628,32.875,253.278,58.436,290.819,97.2,328.286,135.88,324.574,228.269,211.7,263.27Z"/>
</svg>
