<?xml version="1.0"?>
<svg xmlns="http://www.w3.org/2000/svg" xmlns:xlink="http://www.w3.org/1999/xlink" xmlns:svgjs="http://svgjs.com/svgjs" version="1.1" width="512" height="512" x="0" y="0" viewBox="0 0 514.933 514.933" style="enable-background:new 0 0 512 512" xml:space="preserve" class=""><g><g xmlns="http://www.w3.org/2000/svg"><path d="m41.33 245.699c9.652 0 9.668-15 0-15-9.652 0-9.668 15 0 15z" fill="#154c48" data-original="#000000" style="" class=""/><path d="m73.657 252.717c9.652 0 9.668-15 0-15-9.652 0-9.668 15 0 15z" fill="#154c48" data-original="#000000" style="" class=""/><path d="m105.984 256.226c9.652 0 9.668-15 0-15-9.652 0-9.668 15 0 15z" fill="#154c48" data-original="#000000" style="" class=""/><path d="m41.33 341.294c-9.652 0-9.668 15 0 15 9.651 0 9.667-15 0-15z" fill="#154c48" data-original="#000000" style="" class=""/><path d="m73.657 348.313c-9.652 0-9.668 15 0 15 9.651 0 9.667-15 0-15z" fill="#154c48" data-original="#000000" style="" class=""/><path d="m105.984 351.822c-9.652 0-9.668 15 0 15 9.651 0 9.667-15 0-15z" fill="#154c48" data-original="#000000" style="" class=""/><path d="m41.33 451.89c-9.652 0-9.668 15 0 15 9.651 0 9.667-15 0-15z" fill="#154c48" data-original="#000000" style="" class=""/><path d="m73.657 458.908c-9.652 0-9.668 15 0 15 9.651 0 9.667-15 0-15z" fill="#154c48" data-original="#000000" style="" class=""/><path d="m105.984 462.417c-9.652 0-9.668 15 0 15 9.651 0 9.667-15 0-15z" fill="#154c48" data-original="#000000" style="" class=""/><path d="m154.396 124.106c4.14 0 7.5-3.36 7.5-7.5-.346-9.929-14.662-9.925-15 0 0 4.14 3.351 7.5 7.5 7.5z" fill="#154c48" data-original="#000000" style="" class=""/><path d="m154.396 84.106c4.14 0 7.5-3.36 7.5-7.5-.346-9.929-14.662-9.925-15 0 0 4.14 3.351 7.5 7.5 7.5z" fill="#154c48" data-original="#000000" style="" class=""/><path d="m154.396 44.106c4.14 0 7.5-3.36 7.5-7.5-.346-9.929-14.662-9.925-15 0 0 4.14 3.351 7.5 7.5 7.5z" fill="#154c48" data-original="#000000" style="" class=""/><path d="m274.396 44.106c4.14 0 7.5-3.36 7.5-7.5-.346-9.929-14.662-9.925-15 0 0 4.14 3.351 7.5 7.5 7.5z" fill="#154c48" data-original="#000000" style="" class=""/><path d="m234.396 44.106c4.14 0 7.5-3.36 7.5-7.5-.346-9.929-14.662-9.925-15 0 0 4.14 3.351 7.5 7.5 7.5z" fill="#154c48" data-original="#000000" style="" class=""/><path d="m194.396 44.106c4.14 0 7.5-3.36 7.5-7.5-.346-9.929-14.662-9.925-15 0 0 4.14 3.351 7.5 7.5 7.5z" fill="#154c48" data-original="#000000" style="" class=""/><path d="m513.466 72.188c0-4.142-3.357-7.5-7.5-7.5h-11.416v-37.367c0-4.142-3.357-7.5-7.5-7.5h-107.354l-17.623-17.624c-1.407-1.407-3.315-2.197-5.304-2.197h-36.343c-4.143 0-7.5 3.358-7.5 7.5v118.354c0 4.142 3.357 7.5 7.5 7.5h79.752v66.166c0 4.142 3.357 7.5 7.5 7.5h61.385c2.016.009 3.985-.808 5.399-2.251l36.86-37.616c1.362-1.389 2.144-3.311 2.144-5.249zm-185.54 46.166v-103.354h25.736l17.623 17.624c1.407 1.407 3.314 2.197 5.304 2.197h102.961v29.867h-71.872c-4.143 0-7.5 3.358-7.5 7.5v46.166zm87.252-38.666h83.288v74.716h-29.36c-4.143 0-7.5 3.358-7.5 7.5v30.116h-46.428zm61.428 89.716h11.51l-11.51 11.746z" fill="#154c48" data-original="#000000" style="" class=""/><path d="m443.031 378.523c-4.641-17.629-14.533-33.788-28.268-46-3.096-2.754-7.837-2.474-10.588.621-2.753 3.096-2.475 7.836.621 10.588 12.821 11.401 21.651 26.885 24.864 43.599.901 4.683 4.828 6.045 8.915 6.045 69.091 2.839 69.162 101.359 0 104.23h-171.409c-28.736 0-52.114-23.378-52.114-52.115s23.378-52.115 52.114-52.115c4.054 0 8.02-1.396 8.915-6.045 7.833-43.758 53.917-72.62 96.765-60.761 4.004 1.057 8.108-1.335 9.164-5.342 1.055-4.005-1.337-8.108-5.342-9.163-7.762-2.045-15.768-3.082-23.797-3.082-14.932 0-29.177 3.557-41.839 9.93v-25.261c0-7.004-4.807-13.014-14.604-18.169 9.786-5.164 14.604-11.187 14.604-18.159v-73.236c-1.79-43.531-185.541-41.096-225.404-34.739-9.826 1.454-8.212 15.696 1.689 14.904 50.192-5.963 123.186-4.617 168.353 4.621 30.138 5.961 39.262 12.958 40.313 15.214-1.051 2.255-10.175 9.253-40.313 15.214-52.964 10.936-145.88 10.936-198.844 0-30.04-5.941-39.202-12.913-40.303-15.192.617-1.06 5.399-7.407 33.264-13.741 9.609-2.54 6.426-16.487-3.324-14.627-30.279 6.883-44.998 16.155-44.998 28.346v73.236c0 6.972 4.818 12.996 14.604 18.159-9.796 5.155-14.604 11.165-14.604 18.169v73.236c0 6.97 4.815 12.992 14.594 18.154-9.794 5.148-14.594 11.152-14.594 18.174v73.236c1.822 34.375 115.082 38.232 154.783 38.479 31.987-.001 62.512-2.106 88.276-6.089.106-.016.21-.035.314-.056 6.988 2.472 14.503 3.818 22.327 3.818h171.409c86.323-3.121 90.105-125.382 4.457-134.081zm-180.326 0c-8.84.583-17.219 2.886-24.803 6.577-52.057 7.779-132.425 6.95-181.075-2.997-30.67-6.066-39.577-13.206-40.36-15.329v-54.754c56.883 27.016 222.536 27.061 279.566 0v16.323c-16.005 12.314-27.993 29.765-33.328 50.18zm-212.144-165.19c62.793 12.839 187.175 15.215 245.472-10.878v54.754c-31.956 31.339-247.364 31.434-279.566 0v-54.754c8.057 4.176 19.395 7.786 34.094 10.878zm0 73.236c61.587 12.788 164.169 12.959 224.966-3.268 16.675 5.1 19.948 9.505 20.447 10.372-1.097 2.278-10.258 9.251-40.303 15.193-52.964 10.936-145.882 10.936-198.845 0-30.045-5.942-39.205-12.916-40.302-15.193.499-.867 3.772-5.272 20.447-10.372 4.159 1.148 8.688 2.237 13.59 3.268zm0 109.565c43.24 9.466 114.627 11.547 164.858 6.665-5.38 6.509-9.557 14.046-12.19 22.268-45.367 3.729-160.125 2.217-186.706-21.83 3.649-6.36 14.657-7.288 20.121-10.463 4.249 1.182 8.885 2.301 13.917 3.36zm105.689 103.798c-40.918-.105-120.22-4.488-139.783-23.594v-54.754c45.245 20.648 127.1 21.873 183.785 18.722-1.801 21.755 7.663 42.948 23.312 56.168-20.623 2.273-43.534 3.458-67.314 3.458z" fill="#154c48" data-original="#000000" style="" class=""/><path d="m446.316 325.106c4.141 0 7.5-3.36 7.5-7.5-.345-9.928-14.655-9.925-15 0 0 4.14 3.36 7.5 7.5 7.5z" fill="#154c48" data-original="#000000" style="" class=""/><path d="m446.316 285.106c4.141 0 7.5-3.36 7.5-7.5-.345-9.928-14.655-9.925-15 0 0 4.14 3.36 7.5 7.5 7.5z" fill="#154c48" data-original="#000000" style="" class=""/><path d="m446.316 245.106c4.141 0 7.5-3.36 7.5-7.5-.345-9.928-14.655-9.925-15 0 0 4.14 3.36 7.5 7.5 7.5z" fill="#154c48" data-original="#000000" style="" class=""/></g></g></svg>
