<svg version="1.2" baseProfile="tiny-ps" xmlns="http://www.w3.org/2000/svg" viewBox="0 0 501 501" width="501" height="501">
	<title>logo source</title>
	<style>
		tspan { white-space:pre }
		.shp0 { fill: #7ecfb0 } 
		.shp1 { fill: #358b6b } 
		.shp2 { fill: #4ca684 } 
	</style>
	<path id="P4" class="shp0" d="M25.15 304.05C312.58 408.09 414.31 255.9 408.38 201.58C350.74 356.61 65.11 303 25.15 304.05Z" />
	<path id="P3" class="shp1" d="M160.73 344.52C182.59 348.02 199.42 348.23 199.58 348.1C212.57 392.36 256.59 490.9 256.59 490.9C256.59 490.9 185.87 410.39 160.73 344.52Z" />
	<path id="P2" class="shp1" d="M268.1 88.44C62.84 82.06 135.55 284.01 146.98 302.7C151.58 303.56 184.93 303.82 188.86 303.02C188.86 303.01 119.48 95.42 268.1 88.44Z" />
	<path id="P1" class="shp2" d="M250.15 280.03C460.35 244.47 418.43 96.48 360.1 51.37C301.68 6.18 137.08 -13.52 120.98 165.68C152.23 34.97 294.37 62.16 334.3 103.38C374.15 144.53 370.2 242.8 250.15 280.03Z" />
</svg>